<svg id="Layer_1" data-name="Layer 1" xmlns="http://www.w3.org/2000/svg" viewBox="0 0 124.88 124.88"><title>Coca-Cola logo - Brandlogos.net</title><g id="Page-1"><g id="Asset-1KO"><path id="Path" d="M446.44,384A62.44,62.44,0,1,0,384,446.44,62.44,62.44,0,0,0,446.44,384" transform="translate(-321.56 -321.56)" style="fill:#f40000"/><path id="Shape" d="M407,368.13a14,14,0,0,0-4.55,3.54c-2.46,2.7-3.87,5.73-2.82,6.53.41.31,1.34.36,3-1.16a13.57,13.57,0,0,0,3.59-5c1.09-2.67.74-3.9.74-3.93m13.4,4.85c-2.72-1.4-4.7-3.1-6.77-4.16s-3.21-1.41-4.81-1.24a4.4,4.4,0,0,0-.66.16s.83,2.8-2.44,7.52-6.32,4.8-7.13,3.47.26-4.21,2.19-6.72a24.35,24.35,0,0,1,5.56-4.82s-1.13-.68-3.91.89a39,39,0,0,0-11.74,11.35c-4.32,6.15-5.18,9.55-5.8,12.21s-.06,5.53,2.9,5.53,6.4-4.52,7.37-6.09c1.8-2.92,3-7.4.53-6.78-1.22.3-2.2,1.64-2.81,2.93a12.16,12.16,0,0,0-.89,2.59,10.47,10.47,0,0,0-2.4,1.4,18.4,18.4,0,0,0-2.27,2,14.26,14.26,0,0,1,1.71-5.58,9.13,9.13,0,0,1,6.56-5.17c1.6-.13,3.67,1.22,1.91,6.21s-6.91,11.05-12.35,11.13c-5,.07-8.31-6.34-1.33-17.53,7.77-12.36,16.77-16.16,19.77-16.58s3.9.87,3.9.87a12.68,12.68,0,0,1,5.6-.93c3.6.24,6.38,2.79,10.05,4.57-1,.93-1.86,1.89-2.69,2.79m16.14-4.18c-2.48,1.61-5.94,3.06-9.25,2.74-.84.87-1.74,1.87-2.64,3,5.75,1.14,10.78-2.43,13.46-5.47a17.77,17.77,0,0,0,2.49-3.58,21.94,21.94,0,0,1-4.06,3.31M428.92,385a1,1,0,0,0,.1-.24.56.56,0,0,0-.52-.5c-.55,0-1.3.08-3.25,2.24a29.51,29.51,0,0,0-4.17,5.92c-1.12,2-1.57,3.57-.92,4a.93.93,0,0,0,.68.07c.43-.1.93-.51,1.68-1.38.35-.41.75-1,1.21-1.63,1.29-1.76,4.54-7.32,5.19-8.44m-20.36,2.33c.33-.86.74-2.53-.13-3.19s-3.29.94-3.31,2.62a2.9,2.9,0,0,0,2.08,2.61c.23.07.31.06.42-.13a15,15,0,0,0,.94-1.91m-1.77,3.18a8.09,8.09,0,0,1-1.63-1,5.48,5.48,0,0,1-1.23-1.49c0-.05-.06,0-.1,0a22.5,22.5,0,0,0-1.44,2c-1.26,1.86-3.2,5.69-1.44,6.34,1.12.42,3-1.55,4-2.86a23.47,23.47,0,0,0,1.89-2.87c0-.1,0-.13-.06-.15M426.7,395c-.48.76-1,2.22.56,1.31,1.92-1.11,4.65-5.26,4.65-5.26h1.23a40.63,40.63,0,0,1-3.74,4.93c-1.95,2.15-4.32,4.11-6,3.92-2-.23-1.34-2.79-1.34-2.79s-2.8,3-4.73,2.76c-2.58-.26-1.77-3.52-1.77-3.52s-3,3.63-5,3.51c-3.15-.18-2.36-4-1.48-6.71.47-1.45.9-2.58.9-2.58s-.31.08-1,.18a10,10,0,0,0-1,.09s-1.32,2.31-2.36,3.7-5.46,6.19-8.06,5.24c-2.43-.89-1.63-4.61-.21-7.56,2.06-4.3,7.85-10.5,11.2-9.69s.08,7.17.08,7.17h0a1.48,1.48,0,0,0,.66,0,7.7,7.7,0,0,0,1.27-.37,74,74,0,0,1,7.33-12.09c3.85-4.77,11.53-13,14.55-11,.73.49.4,2.17-.59,4.22-.44.13-.9.26-1.36.35a11,11,0,0,0,1.23-2.93c.45-2.46-5.31,2.74-9.43,8.34a77.79,77.79,0,0,0-6.58,10.67,17.22,17.22,0,0,0,2.13-1.51,61.86,61.86,0,0,0,5.22-4.89,57.26,57.26,0,0,0,4.5-5.14,8,8,0,0,0,1.3-.14A56.53,56.53,0,0,1,424,381c-1.64,1.66-3.42,3.44-5,4.75a43.21,43.21,0,0,1-4.35,3.24s-3.61,7.25-1.65,7.72c1.15.28,3.42-3.23,3.42-3.23s3-4.53,4.76-6.57c2.44-2.77,4.54-4.37,6.64-4.41a2.5,2.5,0,0,1,1.94,1.28l.57-.89h3.56s-6.62,11.23-7.15,12.08m9.86-26.14c-2.48,1.61-5.94,3.06-9.25,2.74-.84.87-1.74,1.87-2.64,3,5.75,1.14,10.78-2.43,13.46-5.47a17.77,17.77,0,0,0,2.49-3.58,21.94,21.94,0,0,1-4.06,3.31m-6.1,28.93H431a1.43,1.43,0,0,1,.43,0,.4.4,0,0,1,.25.4.33.33,0,0,1-.16.3.55.55,0,0,1-.23.09.33.33,0,0,1,.27.15.48.48,0,0,1,.09.24v.31h-.25V399c0-.18,0-.3-.15-.35a.5.5,0,0,0-.29-.06h-.22v.61h-.28Zm.94.48c0-.12,0-.2-.1-.23a.69.69,0,0,0-.33-.06h-.23v.56H431a.79.79,0,0,0,.26,0,.26.26,0,0,0,.16-.24m1,.3a1.42,1.42,0,1,1-2.42-1,1.44,1.44,0,0,1,2,0,1.34,1.34,0,0,1,.41,1M431,397.32a1.18,1.18,0,0,0-.86.36,1.16,1.16,0,0,0-.36.86,1.22,1.22,0,0,0,.36.88,1.18,1.18,0,0,0,.86.35,1.2,1.2,0,0,0,1.28-1.21,1.15,1.15,0,0,0-.35-.86,1.2,1.2,0,0,0-.87-.36m-44.19-23h-3.37l-1.91,3.08h3.36Zm-16,10.66c1.44-2,5.39-8.85,5.39-8.85a.58.58,0,0,0-.53-.5c-.55,0-1.45.16-3.27,2.43a42.23,42.23,0,0,0-4.24,6c-1.12,2-1.62,3.5-1,3.89a1,1,0,0,0,.68.07,4,4,0,0,0,1.8-1.43c.36-.4.75-1,1.22-1.59m-18.08-9.3c-.93-.7-3.3.94-3.31,2.63s2.14,2.26,2.42,2.26a.29.29,0,0,0,.34-.13c.06-.13.35-.67.68-1.52s.74-2.54-.13-3.2m-1.4,5.94a7.94,7.94,0,0,1-1.85-.85,3.85,3.85,0,0,1-1.3-1.44c0-.06-.07,0-.11,0s-.22.3-1.48,2.15-3.11,5.7-1.36,6.34c1.12.42,3-1.56,4-2.86a34.28,34.28,0,0,0,2.13-3.19c.05-.11,0-.14-.06-.16m27.53,1.13h1.23s-6.18,8.94-9.68,8.54c-1.94-.23-1.37-2.64-1.37-2.64s-2.74,3.21-5.25,2.57c-2.28-.59-.81-4.38-.81-4.38-.26.1-5.2,5.67-8.67,4.34s-1.75-6.06-1-7.46c.56-1.18,1.2-2.34,1.2-2.34s-.56.16-.91.24l-.87.18s-1.72,2.79-2.77,4.19-5.45,6.19-8.12,5.23-2-4.63-.5-7.55c2.39-4.75,8.07-10.57,11.49-9.69s.6,6.48.6,6.48.68.1,2.33-1c2.38-1.62,5.51-6,8.9-5.46,1.59.23,3.07,1.87,1,5-.66,1-1.74,1.89-2.58,1-.52-.54-.07-1.55.48-2.23a2.15,2.15,0,0,1,1.83-.84s.56-1.28-.86-1.26c-1.16,0-4.07,2.71-5.72,5.43-1.52,2.5-3.81,6.75-1.5,7.67,2.1.85,6.11-3.91,8-6.41s6.09-8.16,9.64-8.39a2.36,2.36,0,0,1,1.95,1l.41-.65H381s-6.69,11.17-7.21,12c-.41.66-1,2.15.56,1.32s4.66-4.89,4.66-4.89m-2,17.89a14.8,14.8,0,0,0-8.93-2.6,5.48,5.48,0,0,0-4.36,2.36c-1.35-2.36-4-3.81-8.17-3.78-6.69.08-13.33,3.17-18.59,3.17-5,0-8.72-3.17-8.6-8.79.2-9.87,8.55-18.76,14.78-22.77,3.58-2.3,6.58-3,8.55-2.76a2.87,2.87,0,0,1,2.07,4.25c-1.6,3.57-3.8,3.27-3.72,1.56a2.79,2.79,0,0,1,1.34-2.19,2.76,2.76,0,0,1,1.29-.32c.32-.26.56-2.21-2-1.57s-5.65,3.16-8.6,6.41-7.51,9.41-8.67,15.93c-.53,3-.17,8.46,6.93,8.39,6,0,14.9-4,23.06-3.94a15.55,15.55,0,0,1,8.07,2.2,22.52,22.52,0,0,1,5.55,4.5" transform="translate(-321.56 -321.56)" style="fill:#fff"/></g></g></svg>