<?xml version="1.0" encoding="utf-8"?>
<!-- Generator: Adobe Illustrator 26.0.3, SVG Export Plug-In . SVG Version: 6.00 Build 0)  -->
<svg version="1.0" id="katman_1" xmlns:svg="http://www.w3.org/2000/svg"
	 xmlns="http://www.w3.org/2000/svg" xmlns:xlink="http://www.w3.org/1999/xlink" x="0px" y="0px" viewBox="0 0 432.4 316.4"
	 style="enable-background:new 0 0 432.4 316.4;" xml:space="preserve">
<style type="text/css">
	.st0{fill-rule:evenodd;clip-rule:evenodd;fill:#23282F;}
	.st1{fill:#FFFFFF;}
</style>
<g id="Layer_x0020_1_0">
	<g id="_393253280">
		<circle class="st0" cx="216.2" cy="158.2" r="118.9"/>
		<path class="st1" d="M269.1,95h21.6l-45,45.5c-16.3,16.5-42.7,16.5-59,0l-45-45.5h21.6l34.2,34.6c10.1,10.3,26.8,10.4,37.1,0.3
			c0.1-0.1,0.2-0.2,0.3-0.3L269.1,95z M163.1,221.5L163.1,221.5h-21.6l45.3-45.8c16.3-16.5,42.7-16.5,59,0l45.3,45.8h-21.6
			l-34.4-34.8c-10.1-10.3-26.8-10.4-37.1-0.3c-0.1,0.1-0.2,0.2-0.3,0.3L163.1,221.5z"/>
	</g>
</g>
</svg>
