<svg xmlns="http://www.w3.org/2000/svg" viewBox="0 0 22 22" xmlns:v="https://vecta.io/nano"><path d="M4 5h12v10H4z" fill="#fff"/><path fill="#1d9bf0" d="M20.396 11a3.49 3.49 0 0 0-2.008-3.062c.223-.607.27-1.264.14-1.897a3.47 3.47 0 0 0-.882-1.687c-.47-.445-1.053-.75-1.687-.882s-1.29-.083-1.897.14a3.47 3.47 0 0 0-1.245-1.44A3.5 3.5 0 0 0 11 1.604a3.46 3.46 0 0 0-3.053 2.008 3.47 3.47 0 0 0-1.902-.14c-.635.13-1.22.436-1.69.882a3.46 3.46 0 0 0-.734 3.584A3.5 3.5 0 0 0 1.604 11a3.5 3.5 0 0 0 .574 1.817c.356.54.856.972 1.443 1.245a3.46 3.46 0 0 0-.144 1.896 3.47 3.47 0 0 0 .877 1.688 3.5 3.5 0 0 0 3.584.742A3.49 3.49 0 0 0 11 20.396a3.48 3.48 0 0 0 3.062-2.007 3.335 3.335 0 0 0 4.326-4.327A3.49 3.49 0 0 0 20.396 11M9.662 14.85l-3.429-3.428 1.293-1.302 2.072 2.072 4.4-4.794 1.347 1.246z"/></svg>